<?xml version="1.0" encoding="utf-8"?>
<!-- Generator: Adobe Illustrator 24.3.0, SVG Export Plug-In . SVG Version: 6.00 Build 0)  -->
<svg version="1.1" id="Layer_1" xmlns="http://www.w3.org/2000/svg" xmlns:xlink="http://www.w3.org/1999/xlink" x="0px" y="0px"
	 viewBox="0 0 1200 800" style="enable-background:new 0 0 1200 800;" xml:space="preserve">
<style type="text/css">
	.st0{fill:#0007ED;}
</style>
<g>
	<path class="st0" d="M103.9,432.3H164c53.1,0,69.3,37,69.3,71.3s-16.2,71.3-69.3,71.3h-13.9v83.6H240l32.9-226.2h73.9l32.9,226.2
		h10.7V432.3h48.2v179.5h81.2v46.7h16.5V432.3h128.7v46.2h-81.2v44.2H655v46.2h-71.3v44.2h81.2v45.3h14.5V432.3h64
		c47.9,0,66,37.6,66,70.3S796.5,552.8,781,563l34,95.5h10.9V432.3h46.2l18.5,72.3l18.5-72.3h45.9v226.2h52.9
		c-23.7-9.7-36.7-32.6-36.7-61.8V495c0-39.3,23.4-67,64.7-67c37.9,0,60.8,23.5,64.2,57.8V368.9h-27.7V161.7h-25.7v207.2h-27.7V256.7
		c-32,0-57.4-25.4-57.4-57.1c0-28.8,21-52.9,48.8-57.1H664.9v46h-81.2v44.2H655v46.2h-71.3v44.2h81.2v46.2H536.2V142.5h-97.7v179.3
		h81.2v47.5H390.3V142.5h-10l-46.8,151.6v75.2H286v-75.2l-46.8-151.6h-4.1l-49.7,95.8l49.2,131h-51.2l-28.7-79.2l-9.2,17.8v61.4H100
		v63L103.9,432.3z"/>
	<polygon class="st0" points="872.1,540.6 872.1,658.5 909.1,658.5 909.1,540.6 890.6,608.9 	"/>
	<path class="st0" d="M1035.8,473.6c-17.5,0-18.5,17.5-18.5,27.1V591c0,9.6,1,27.1,18.5,27.1s18.5-17.5,18.5-27.1v-90.4
		C1054.3,491.1,1053.3,473.6,1035.8,473.6z"/>
	<polygon class="st0" points="145.5,142.5 145.5,216.2 183.7,142.5 	"/>
	<polygon class="st0" points="332.2,142.5 287.4,142.5 309.8,222.2 	"/>
	<polygon class="st0" points="297.6,577.5 322,577.5 309.8,479.8 	"/>
	<path class="st0" d="M187.1,503.6c0-7.9-3.3-25.7-24.4-25.7h-12.5v51.5h12.5C183.8,529.3,187.1,513.2,187.1,503.6z"/>
	<polygon class="st0" points="725.6,658.5 765.2,658.5 735.5,572.9 725.6,572.9 	"/>
	<path class="st0" d="M1063.8,658.5h36.2v-52.6C1097.5,630.7,1084.9,649.8,1063.8,658.5z"/>
	<path class="st0" d="M763.2,502.6c0-10.6-2.3-24.8-24.4-24.8h-13.2v49.5h13.2C760.9,527.4,763.2,513.2,763.2,502.6z"/>
	<polygon class="st0" points="287.1,658.5 332.5,658.5 328,619.8 291.7,619.8 	"/>
</g>
</svg>
