<svg id="Layer_1" data-name="Layer 1" xmlns="http://www.w3.org/2000/svg" viewBox="0 0 216 144"><defs><style>.cls-1{fill:#0007ed;}</style></defs><polygon class="cls-1" points="58.58 107.16 51.76 107.16 50.97 113.97 59.37 113.97 58.58 107.16"/><polygon class="cls-1" points="52.88 99.23 57.46 99.23 55.17 80.89 52.88 99.23"/><polygon class="cls-1" points="68.43 71.97 64.52 71.97 64.52 54.32 57.02 30.03 46.72 30.03 40.91 41.23 52.44 71.97 62.11 71.97 68.21 113.97 68.43 113.97 68.43 71.97"/><path class="cls-1" d="M48.23,72H40.44L33.7,53.39l-2.16,4.18V72h.59c10,0,13,6.94,13,13.38s-3,13.38-13,13.38H29.52V114H42.13Z"/><path class="cls-1" d="M191.52,75.14V70.57h-6.45a2.25,2.25,0,0,1-2.28-2.27V35.19h-2V68.3a2.25,2.25,0,0,1-2.27,2.27h-1.73a2.25,2.25,0,0,1-2.27-2.27V53.15H167.1c-3.64,0-6.77-2.77-6.77-6.09V35.91A6.35,6.35,0,0,1,165.42,30H134.36v9.88h16.73V50.75H134.36V61.13h19V72h-.11l3.47,13.57L160.24,72h8.61v42h7.09c-3.83-2-5.91-6.08-5.91-11.15V83.74c0-7.37,4.4-12.58,12.14-12.58C186.29,71.16,189.46,72.65,191.52,75.14Z"/><polygon class="cls-1" points="72.18 30.03 68.02 30.03 70.1 37.44 72.18 30.03"/><path class="cls-1" d="M36.46,85.35c0-1.49-.62-4.83-4.58-4.83H29.52v9.66h2.36C35.84,90.18,36.46,87.15,36.46,85.35Z"/><path class="cls-1" d="M182.17,79.71c-3.28,0-3.47,3.29-3.47,5.08v17c0,1.79.19,5.08,3.47,5.08s3.47-3.29,3.47-5.08v-17C185.64,83,185.45,79.71,182.17,79.71Z"/><polygon class="cls-1" points="31.54 30.03 31.54 36.04 34.65 30.03 31.54 30.03"/><rect class="cls-1" x="189.07" y="35.19" width="2.45" height="30.02"/><path class="cls-1" d="M188.4,114h3.12v-2.55A10.22,10.22,0,0,1,188.4,114Z"/><path class="cls-1" d="M144.63,72H131c9,0,12.39,7.06,12.39,13.19S141,94.58,138.06,96.5L144.28,114h.35Z"/><polygon class="cls-1" points="160.24 92.29 156.77 105.11 153.3 92.29 153.3 113.97 160.24 113.97 160.24 92.29"/><path class="cls-1" d="M166.6,37v9a1.81,1.81,0,0,0,1.87,1.82h6.05V35.19h-6.05A1.8,1.8,0,0,0,166.6,37Z"/><polygon class="cls-1" points="93.95 113.97 93.95 71.97 88.99 71.97 88.99 30.03 83.17 30.03 75.67 54.32 75.67 71.97 77.47 71.97 77.47 105.67 92.71 105.67 92.71 113.97 93.95 113.97"/><polygon class="cls-1" points="123.21 71.97 123.21 30.03 100.29 30.03 100.29 60.82 119.34 60.82 119.34 71.97 123.21 71.97"/><path class="cls-1" d="M130.13,89.81c4.15,0,4.59-2.66,4.59-4.65s-.44-4.64-4.59-4.64h-2.48v9.29Z"/><polygon class="cls-1" points="118.98 113.97 118.98 71.97 118.11 71.97 118.11 80.64 102.87 80.64 102.87 88.94 116.25 88.94 116.25 97.62 102.87 97.62 102.87 105.92 118.11 105.92 118.11 113.97 118.98 113.97"/><polygon class="cls-1" points="129.51 98.36 127.65 98.36 127.65 113.97 134.93 113.97 129.51 98.36"/></svg>